<svg xmlns="http://www.w3.org/2000/svg" xmlns:xlink="http://www.w3.org/1999/xlink" width="3272"
  height="3577" fill="none" xmlns:v="https://vecta.io/nano">
  <g fill-rule="evenodd">
    <use xlink:href="#B" fill="#7f7fbf" />
    <use xlink:href="#B" fill="#2563eb" />
    <use xlink:href="#C" fill="#7fbfff" />
    <use xlink:href="#C" fill="#2aaaff" />
    <use xlink:href="#C" fill="#2563eb" />
    <use xlink:href="#D" fill="#7fffff" />
    <use xlink:href="#D" fill="#0ff" />
    <path
      d="M1035.31 1.463c-19.31 1.827-43.09 9.126-59.867 18.376-8.633 4.759-16.006 9.359-18.632 11.624-1.375 1.186-3.625 2.859-5 3.717-7.611 4.752-28.804 27.191-36.175 38.304-3.074 4.635-11.825 19.478-11.825 20.058 0 .215-1.337 3.312-2.972 6.88s-3.283 7.743-3.663 9.275-1.968 5.641-3.528 9.13-2.837 7.014-2.837 7.833-1.383 4.64-3.073 8.491-3.686 8.877-4.435 11.168-3.131 8.89-5.292 14.665l-5.745 15.5-11.399 30.5-7.017 19-6.483 17.5c-2.771 7.111-5.998 15.835-11.654 31.5l-7.563 20.5-10.824 29-4.241 11.5-10.978 30.235c-.493 1.639-14.301 1.749-251.159 2l-250.637.265-12.5 2.349c-19.592 3.683-44.873 12.94-54.966 20.127-1.564 1.113-3.115 2.024-3.449 2.024-.764 0-9.386 6.009-16.585 11.558-7.104 5.476-18.696 17.257-26.059 26.483-11.358 14.233-20.65 30.945-26.942 48.459-3.341 9.3-3.859 11.171-6.656 24-3.394 15.574-4.341 42.12-1.997 56 2.449 14.504 5.337 26.647 7.572 31.833 1.145 2.658 2.082 5.274 2.082 5.813 0 1.174 9.159 19.89 12.162 24.854 3.083 5.095 9.956 15.181 11.924 17.5 3.094 3.643 15.167 16.878 22.847 25.047l15.067 16.044 22 23.401 21 22.326 13 13.716 33.496 35.501 21 22.45 15.004 15.89 25 26.527 16 16.952 19 20.115 21.152 22.453 11.87 12.828 3.719 4.25H3004.53l2.05-5.75 11.97-32.25 5.76-15.5 7.97-21.5 7.04-19 12.44-33.5 7.03-19 5.97-16.242 12.59-33.758 6.47-17.5 6.52-17.5 7.49-20 5.96-16 12.88-35 12.6-34 13.79-37 5.76-15.5 6.47-17.5 7.24-19.5 6.31-17 6.46-17.5 13-35 7.06-19 6.49-17.5 6.5-17.5 5.98-16 5.94-16 7.01-19 12.7-34.5c1.05-3.025 2.34-6.4 2.87-7.5.54-1.1 2.27-5.6 3.86-10l6.58-18c12.75-34.483 15.64-45.621 17.57-67.584 3.62-41.262-13.04-90.163-41.54-121.886-9.4-10.475-28.28-27.18-32.51-28.77-.82-.311-2.17-1.126-3-1.811-1.33-1.103-5.08-3.236-15.5-8.81-16.25-8.693-39.19-14.92-61.06-16.576-21.72-1.644-2064.48-1.237-2081.94.415z"
      fill="#22d3ee" />
  </g>
  <defs>
    <path id="B"
      d="M1037.31 1.097c-14.99 1.133-33.99 5.841-46.276 11.47-2.903 1.329-5.696 2.417-6.206 2.417s-3.219 1.35-6.017 3-5.451 3-5.896 3c-1.254 0-16.504 10.263-17.404 11.712-.44.708-1.285 1.288-1.878 1.288-2.585 0-30.822 27.486-30.822 30.002 0 .378-.954 1.545-2.12 2.593-3.102 2.788-8.488 11.382-16.235 25.905-2.892 5.421-7.645 16.612-7.645 18 0 .748-1.328 4.23-2.952 7.738s-3.189 7.727-3.48 9.376-1.241 4.429-2.113 6.175-2.845 6.672-4.386 10.944l-11.432 30.639c-.901 2.13-1.637 4.48-1.637 5.223s-1.086 3.725-2.414 6.628-3.633 8.652-5.122 12.777l-12.483 34c-4.074 10.669-8.318 22.311-11.667 32-1.425 4.125-2.932 7.95-3.348 8.5s-1.663 3.925-2.77 7.5-2.999 8.75-4.203 11.5-3.223 7.925-4.485 11.5l-12.505 34c-1.755 4.675-4.008 10.975-5.008 14s-2.738 7.631-3.864 10.235l-2.047 4.734-500.584.531-12.5 2.308c-6.875 1.27-15.875 3.446-20 4.836s-8.85 2.877-10.5 3.304c-2.808.728-11.701 4.97-24.5 11.684-11.427 5.994-29.838 21.356-42.582 35.532-3.903 4.341-12.93 17.332-17.16 24.693-9.617 16.738-15.085 30.984-19.437 50.643-2.601 11.75-3.175 16.793-3.576 31.38-.478 17.398.196 25.332 3.367 39.62 2.238 10.086 5.648 21.542 6.583 22.121.443.273.805 1.261.805 2.195 0 1.782 9.74 22.32 10.995 23.184.399.275 1.503 2.016 2.453 3.869 1.999 3.9 8.361 13.165 10.047 14.631.633.55 1.568 1.741 2.078 2.648.837 1.487 14.565 16.616 23.427 25.817l10.962 11.585 15.502 16.45 21.538 22.937 30.248 31.81c5.362 5.512 9.75 10.297 9.75 10.631s3.038 3.667 6.75 7.405c7.244 7.294 13.778 14.185 35.75 37.706l19.669 20.999 14 14.87 14.831 15.676 46.775 49.716 9.532 10.25H3004.57l1.21-3.25 3.53-9.25c1.28-3.3 3.23-8.7 4.33-12s3.87-10.725 6.15-16.5 4.75-12.525 5.48-15c.74-2.475 2.69-7.875 4.34-12 6.3-15.73 9.22-23.54 9.21-24.657-.01-.636 1.29-4.05 2.87-7.585 1.59-3.536 3.21-7.9 3.61-9.698.39-1.798 1.65-5.359 2.8-7.914 1.14-2.555 3.38-8.246 4.96-12.646l6.36-17.5 4.84-13.5c.74-2.2 2.34-6.25 3.54-9a152.84 152.84 0 0 0 4.03-10.5c2.89-8.592 7.91-22.194 9.42-25.5.76-1.65 2.05-5.25 2.87-8 .83-2.75 2.67-7.6 4.1-10.779 1.42-3.178 2.59-6.427 2.59-7.221s1.16-4.043 2.58-7.221 3.84-9.379 5.39-13.779l8.56-23.5 4.42-12c1.55-4.402 6.91-18.885 11.1-30l6.45-17.5 5.27-14c4.48-11.075 8.23-21.197 8.23-22.23 0-.601 1.58-4.773 3.5-9.27 1.93-4.497 3.5-8.756 3.5-9.464s1.09-3.745 2.42-6.75 3.6-8.913 5.06-13.13c1.45-4.217 3.29-8.903 4.08-10.412.78-1.509 1.43-3.536 1.43-4.505.01-.968.91-3.682 2.02-6.031 1.1-2.349 3.53-8.532 5.4-13.739l4.64-12.969c1.48-4.138 4.72-12.67 5.88-15.5 2.41-5.888 7.32-19.395 7.99-22 .43-1.65 1.69-5.025 2.81-7.5 1.11-2.475 2.59-6.3 3.29-8.5 1.42-4.505 2.01-6.028 4.93-12.695 1.13-2.582 2.05-5.353 2.05-6.157s1.35-4.466 3-8.138c1.64-3.672 3.18-7.711 3.41-8.976s1.8-5.606 3.5-9.648 3.09-7.84 3.09-8.441 1.58-4.727 3.5-9.169c1.93-4.442 3.5-8.739 3.5-9.549s.98-3.667 2.17-6.35c1.2-2.682 3.38-8.252 4.86-12.377l4.47-12.5c.99-2.75 3.08-8.041 4.65-11.759s2.85-7.455 2.85-8.306c0-1.365 2.22-7.033 5.08-12.935.53-1.1 1.14-2.974 1.37-4.165.22-1.191 1.79-5.458 3.48-9.481s3.07-7.825 3.07-8.448 1.39-4.455 3.08-8.518 3.22-8.063 3.39-8.888c.18-.825 1.67-5.55 3.32-10.5 5.89-17.696 8.84-42.441 7.23-60.748-1.21-13.745-5.34-35-8.02-41.261-1.09-2.541-2.16-5.604-2.38-6.806-.49-2.656-9.67-21.639-13.15-27.185-1.38-2.2-3.03-5.013-3.65-6.25-.63-1.238-1.52-2.25-1.98-2.25s-.84-.575-.84-1.277-1.35-2.755-3-4.562-3-3.638-3-4.071c0-.978-20.45-21.603-25.09-25.308-6.5-5.184-12.79-9.782-13.39-9.782-.69 0-6.3-3.88-8.31-5.75-.75-.687-1.98-1.25-2.75-1.25-.76 0-3.52-1.35-6.12-3s-5.31-3-6.02-3-4.11-1.376-7.55-3.058c-3.45-1.682-8.07-3.45-10.27-3.929s-7.6-1.847-12-3.039c-10.89-2.951-10.29-2.858-25.5-3.97-16.71-1.221-2064.31-1.114-2080.5.109zM814.819 1095.23c-1.034 2.34-2.09 5.42-2.349 6.84-.258 1.43-1.783 5.93-3.39 10-1.606 4.08-3.62 9.44-4.476 11.91l-8.852 25c-1.499 4.13-3.517 9.98-4.485 13-.967 3.03-2.59 7.17-3.607 9.21s-1.849 4.64-1.849 5.77-.434 2.83-.965 3.79c-2.052 3.69-5.035 11.2-5.035 12.67 0 .85-1.575 5.34-3.5 10-1.925 4.65-3.5 9.09-3.5 9.88s-.839 3.4-1.865 5.81c-2.552 5.99-3.393 8.17-3.689 9.56-.54 2.56-2.744 8.87-3.428 9.81-.397.55-1.523 3.48-2.502 6.5-.979 3.03-2.994 8.88-4.476 13l-4.491 12.5-5.779 16.5c-2.19 6.33-4.385 11.93-4.876 12.45-.492.53-.894 1.74-.894 2.7s-1.535 5.71-3.412 10.55c-3.228 8.33-7.694 20.95-10.546 29.8a97.19 97.19 0 0 1-3.19 8.25c-1.046 2.34-2.179 5.72-2.518 7.5-.338 1.79-.946 3.7-1.351 4.25s-2.647 6.63-4.983 13.5c-2.336 6.88-4.619 12.97-5.072 13.54s-1.278 2.82-1.834 5c-1.183 4.64-8.096 24.18-10.6 29.96-.952 2.2-2.37 6.45-3.15 9.45-.781 2.99-1.835 5.94-2.344 6.55-.509.62-1.58 3.57-2.38 6.56s-2.786 8.82-4.413 12.94c-1.626 4.13-3.729 9.75-4.672 12.5l-5.514 15.5-5.028 14c-.677 1.93-2.134 5.9-3.237 8.82-3.205 8.5-8.709 24.29-10.175 29.18a98.58 98.58 0 0 1-3.453 9.31c-1.157 2.64-2.846 7.37-3.752 10.5s-2.712 8.03-4.012 10.88-2.364 5.93-2.364 6.85c0 .91-.612 3.08-1.359 4.81-2.833 6.57-3.791 9.18-8.78 23.96-2.82 8.36-5.47 15.64-5.889 16.19s-1.694 4.04-2.832 7.75c-1.139 3.7-3.164 9.55-4.501 13-1.337 3.44-2.723 7.54-3.081 9.11-.359 1.58-1.493 4.73-2.521 7-1.028 2.28-2.419 5.94-3.091 8.14s-2.328 6.7-3.678 10-2.619 6.83-2.82 7.83c-.599 3.02-1.59 6-3.046 9.17-1.757 3.84-9.304 25.05-10.315 29-.422 1.65-1.647 5.03-2.721 7.5-1.075 2.48-2.555 6.53-3.289 9-.735 2.48-1.913 5.85-2.618 7.5s-2.718 7.28-4.474 12.5c-1.756 5.23-3.801 10.68-4.545 12.12s-1.567 3.8-1.829 5.25c-.263 1.44-1.794 6.12-3.402 10.38l-4.718 12.75-5.204 14.5-5.712 16.5a205.63 205.63 0 0 1-4.938 13.22c-1.45 3.42-2.637 6.94-2.637 7.82 0 .87-1.064 3.93-2.364 6.78s-3.105 7.75-4.012 10.88-2.584 7.86-3.729 10.5-2.283 5.87-2.53 7.18c-.247 1.3-1.604 5.13-3.017 8.5s-2.917 7.7-3.343 9.62c-.427 1.93-2.125 6.88-3.776 11-1.65 4.13-3.532 9.08-4.184 11-5.177 15.31-7.094 20.5-10.222 27.7-1.003 2.31-1.826 5.01-1.829 6s-.593 2.93-1.31 4.3c-.718 1.38-2.132 4.98-3.144 8l-5.066 14.5-4.434 12.5c-3.868 11.22-5.742 16.39-8.719 24.03-1.827 4.68-3.321 9.08-3.321 9.77s-1.287 4.5-2.86 8.48c-3.028 7.65-4.607 12.03-9.277 25.72-1.595 4.68-3.531 9.85-4.304 11.5s-1.699 4.35-2.06 6-1.051 3.9-1.536 5c-2.521 5.72-5.963 15-5.963 16.07 0 .67-1.35 4.4-3 8.27-1.65 3.88-3 7.78-3 8.66 0 .89-.82 3.5-1.823 5.81-2.602 5.98-4.542 11.18-7.167 19.19-1.262 3.85-2.616 7.45-3.011 8s-.995 2.47-1.333 4.25c-.339 1.79-1.472 5.17-2.518 7.5-1.046 2.34-2.465 6.05-3.152 8.25s-2.295 6.7-3.571 10-2.838 8.03-3.47 10.5c-.633 2.48-1.516 4.95-1.964 5.5s-2.704 6.63-5.015 13.5c-2.312 6.88-4.538 12.95-4.949 13.5s-1.023 2.47-1.361 4.25c-.339 1.79-1.593 5.39-2.788 8-1.195 2.62-3.2 7.9-4.457 11.75-2.951 9.05-8.331 24.38-12.985 37l-5.143 14.5c-.802 2.48-2.509 7.2-3.794 10.5s-3.111 8.48-4.057 11.5c-.946 3.03-2.496 7.3-3.444 9.5s-2.863 7.38-4.255 11.5c-3.198 9.48-4.272 12.46-8.399 23.26-1.839 4.82-3.344 9.27-3.344 9.9 0 1.34-5.01 15.3-9.092 25.34-1.566 3.85-3.143 8.35-3.505 10-.679 3.1-3.874 11.67-5.489 14.74-.503.95-.914 2.36-.914 3.11 0 .76-1.354 4.66-3.01 8.68-1.655 4.01-3.196 8.24-3.425 9.38-.589 2.97-2.717 8.91-3.612 10.09-.417.55-1.27 3.03-1.897 5.5-.627 2.48-1.547 5.4-2.045 6.5-1.26 2.79-5.331 13.92-7.498 20.5-.995 3.03-2.169 5.97-2.609 6.54s-1.238 2.82-1.774 5c-.877 3.57-2.909 9.37-9.261 26.46l-2.881 7.5c-.461 1.1-1.055 3.13-1.321 4.5-.266 1.38-1.69 5.37-3.163 8.87-1.474 3.51-2.866 7.4-3.093 8.65s-1.763 5.45-3.412 9.33c-1.649 3.87-2.999 7.77-2.999 8.65 0 .89-.943 3.68-2.097 6.22-1.153 2.53-3.575 8.91-5.383 14.19l-9.056 25.59c-1.809 4.95-4.057 11.42-4.995 14.37s-2.324 6.55-3.081 8-1.378 3.37-1.382 4.26-1.095 4.09-2.427 7.1-2.925 7.45-3.542 9.87-1.527 5.3-2.024 6.4c-3.675 8.14-5.013 11.61-5.013 13.02 0 .89-1.319 4.85-2.931 8.8-3.371 8.26-8.889 23.78-10.019 28.18-.424 1.65-2.121 6.38-3.77 10.5-1.65 4.13-3.696 9.53-4.547 12l-3.269 9.5c-2.455 7.13-8.161 22.72-11.559 31.57-1.598 4.16-2.905 8.33-2.905 9.26s-.838 3.6-1.863 5.93c-2.844 6.48-4.954 11.98-5.652 14.74-.347 1.38-1.667 5.2-2.932 8.5s-3.1 8.48-4.076 11.5c-.975 3.03-2.113 5.95-2.527 6.5s-1.267 3.03-1.894 5.5c-.627 2.48-1.58 5.4-2.119 6.5-.852 1.74-3.986 10.36-10.547 29l-4.443 12.5-4.463 13c-.979 3.03-2.083 5.95-2.452 6.5s-1.261 3.03-1.981 5.5c-.721 2.48-1.895 5.85-2.609 7.5-.715 1.66-2.402 6.38-3.75 10.5-1.348 4.13-3.63 10.3-5.071 13.72s-2.624 7.02-2.627 8-.668 3.05-1.476 4.6-2.681 6.5-4.161 11-3.56 10.21-4.622 12.68c-1.062 2.48-2.528 6.53-3.259 9-.73 2.48-3.134 9.45-5.341 15.5l-5.737 16a294.27 294.27 0 0 1-3.549 9.66c-1.004 2.56-3.176 8.69-4.826 13.62-1.65 4.92-3.678 10.25-4.506 11.84-.827 1.58-1.507 3.68-1.511 4.66-.003.97-1.317 5.02-2.919 9-1.602 3.97-3.566 9.25-4.365 11.72-2.349 7.29-5.776 16.89-9.366 26.26-1.846 4.82-3.356 9.37-3.356 10.11 0 .75-1.35 4.33-3 7.97s-3 7.28-3 8.09-1.621 5.66-3.602 10.77c-5.807 15-9.045 24-10.367 28.8-.681 2.48-1.582 4.95-2.004 5.5-.776 1.02-3.069 7.63-3.403 9.81-.1.66-1.558 4.79-3.24 9.19l-4.612 12.5c-.854 2.48-2.463 6.87-3.576 9.75-1.113 2.89-1.831 5.25-1.596 5.25s-.312 1.69-1.215 3.75c-1.444 3.3-5.215 13.55-10.943 29.75l-4.455 12.5-4.477 12.5-3.829 11c-1.12 3.3-2.592 7.35-3.27 9s-2.67 7.28-4.426 12.5c-1.756 5.23-3.805 10.69-4.554 12.14-.749 1.44-1.625 4.12-1.946 5.95s-1.175 4.69-1.895 6.37c-3.309 7.7-3.848 9.39-4.636 14.54-.463 3.03-1.555 8.65-2.428 12.5-2.113 9.32-3.057 34.73-1.697 45.67 3.073 24.71 12.404 51.95 24.267 70.83 2.244 3.57 4.379 6.72 4.744 7s1.301 1.74 2.081 3.25c.779 1.52 1.779 2.75 2.222 2.75s1.454 1.24 2.246 2.75c1.482 2.83 20.989 23.25 22.211 23.25.376 0 1.974 1.35 3.55 3s3.206 3 3.62 3 2.547 1.57 4.741 3.48c2.194 1.92 4.344 3.49 4.778 3.5s3.129 1.6 5.987 3.52c2.859 1.93 5.521 3.5 5.917 3.5s3.009 1.35 5.807 3 5.587 3 6.197 3 4.015 1.38 7.566 3.05c3.552 1.68 8.32 3.43 10.597 3.88 2.277.46 8.64 2.13 14.14 3.7l10 2.87h490l495.999-.69c14.46-1.67 38.16-9.52 54.5-18.06 8.64-4.52 24.52-15.18 27.21-18.27 1.18-1.36 2.54-2.48 3.02-2.48 1.17 0 16.77-15.73 16.77-16.91 0-.52 1.35-1.91 3-3.09 1.65-1.17 3-2.72 3-3.44s.66-1.86 1.46-2.53c.81-.67 3.14-3.76 5.19-6.87 2.04-3.11 4-5.88 4.34-6.16.55-.44 2.02-3.15 7.33-13.5 2.84-5.52 7.68-16.58 7.68-17.54 0-1.45 4.16-13.32 5.08-14.5.45-.57 1.25-2.82 1.79-5 .92-3.71 3.35-10.63 10.03-28.46 2.81-7.51 4.52-12.3 8.37-23.5 2.76-8.02 6.84-19.24 10.55-29 1.67-4.4 3.57-10.02 4.21-12.5.64-2.47 1.51-4.95 1.92-5.5s1.54-3.47 2.51-6.5c.97-3.02 3.06-8.87 4.66-13 1.6-4.12 3.09-8.4 3.3-9.5.22-1.1 1.79-5.45 3.49-9.66 1.7-4.22 3.09-8.4 3.09-9.3s.66-2.91 1.46-4.47c.81-1.55 3.01-7.27 4.9-12.7l16.56-46.07c1.69-4.51 3.08-9.03 3.08-10.05 0-1.01.38-2.27.85-2.8.87-.98 5.45-13 5.78-15.17.29-1.88 3.62-10.64 4.49-11.82.43-.57 1.21-2.82 1.75-5 .53-2.17 2.39-7.78 4.12-12.46l10.39-28.5 5.73-16c2.19-6.05 4.57-13.02 5.3-15.5a91.15 91.15 0 0 1 3.02-8.5c.95-2.2 3.21-8.27 5.05-13.5l4.55-13 4.49-12.5 4.77-13.5c3.16-9.33 5.13-14.75 8.37-23.02 1.84-4.69 3.34-9.43 3.34-10.55 0-1.11.36-2.45.8-2.98.78-.92 3.1-6.89 6.59-16.95 6.87-19.8 9.9-28.13 10.56-29 .42-.55 1.05-2.46 1.38-4.25.34-1.78 1.48-5.16 2.52-7.5 1.05-2.33 2.47-6.05 3.17-8.25s2.48-7.37 3.97-11.5l4.47-12.5 5.54-15.5 5.01-14 4.48-12.5 4.79-13.5c3.37-9.88 5.18-14.87 8.38-23.14 1.84-4.75 3.34-9.49 3.34-10.55 0-1.05.41-2.33.91-2.86.5-.52 2.28-5.08 3.95-10.12 1.68-5.05 4.2-11.9 5.6-15.22 1.4-3.33 2.54-6.85 2.55-7.83 0-.98.59-2.9 1.31-4.28.71-1.37 2.12-4.97 3.12-8 1.55-4.7 3.14-9.02 7.52-20.5.42-1.1 1.31-3.8 1.97-6s1.62-4.9 2.14-6c.51-1.1 2.24-5.82 3.85-10.5l9.75-27.14c1.83-4.75 3.33-9.14 3.33-9.77 0-.62 1.16-3.93 2.58-7.36 1.42-3.42 3.23-8.68 4.04-11.67.8-2.99 1.86-5.93 2.36-6.54.81-.97 3.05-7.25 8.57-24.02.91-2.75 2.78-7.92 4.16-11.5 1.38-3.57 3.61-9.75 4.95-13.74 1.35-3.98 3.1-8.48 3.89-10 .79-1.51 1.44-3.55 1.44-4.53.01-.97 1.53-5.7 3.39-10.5l4.58-12.23 4.16-12c1.62-4.67 3.55-9.85 4.3-11.5.74-1.65 1.92-4.8 2.61-7s2.48-7.37 3.97-11.5l3.97-11.5c.7-2.2 1.87-5.35 2.61-7s2.66-6.82 4.27-11.5l10.26-28.5c.51-1.1 1.1-2.9 1.31-4.01s1.7-5.61 3.32-10l4.23-11.99c.7-2.2 2.09-5.81 3.08-8.03s2.1-5.37 2.46-7c.35-1.63 1.02-3.87 1.47-4.97s1.71-4.47 2.79-7.5l5.47-15 7.93-22.5c1.12-3.3 2.93-8.25 4.03-11s2.68-7.25 3.51-10 2.19-6.57 3.02-8.5c.83-1.92 3.01-8.02 4.85-13.55 1.83-5.53 4.03-11.38 4.87-13 .85-1.62 1.54-3.72 1.54-4.66.01-.95.75-3.42 1.65-5.5 2.67-6.16 3.11-7.35 6.42-17.29 1.74-5.22 3.62-10.06 4.18-10.75.55-.68.75-1.25.43-1.25-.59 0 1.42-6.27 3.61-11.25l1.21-2.75h318c346.08 0 335.98.16 354.01-5.47 4.4-1.37 8.58-2.5 9.3-2.51.71-.01 4.66-1.59 8.77-3.52 4.11-1.92 8.03-3.53 8.7-3.57.68-.04 2.58-.91 4.23-1.93 1.65-1.03 5.03-2.87 7.5-4.1 2.48-1.24 5.77-3.29 7.33-4.57 1.55-1.28 3.23-2.33 3.73-2.33 1.18 0 13.39-9.44 19.04-14.72 2.42-2.26 5.64-5.08 7.15-6.27 1.51-1.18 2.75-2.51 2.75-2.94s1.61-2.49 3.58-4.58c4.36-4.62 15.37-19.17 16.18-21.38.33-.88.91-1.83 1.3-2.11.92-.65 11.29-21.1 11.57-22.82.23-1.39 2.8-7.45 4.41-10.39.51-.95 1.34-3.42 1.84-5.5s2.26-7.16 3.92-11.29c3.04-7.58 8.06-20.99 9.91-26.5.56-1.65 2.25-6.15 3.75-10 7.14-18.24 8.56-22.08 8.55-23.22-.01-.67 1.07-3.59 2.39-6.5 1.33-2.9 3.3-7.98 4.4-11.28 1.09-3.3 2.94-8.17 4.1-10.83 1.15-2.66 2.1-5.5 2.1-6.31 0-.82 1.17-4.04 2.6-7.17 1.43-3.12 3.85-9.28 5.39-13.68 4.04-11.6 4.96-14.08 8.67-23.36 1.84-4.59 3.34-8.91 3.34-9.59 0-1.17 1.94-5.85 4.05-9.77.51-.95 1.33-3.42 1.83-5.5s2.27-7.16 3.94-11.29a477.35 477.35 0 0 0 6.19-16.5c1.74-4.95 4.45-12.15 6.02-16s4.06-10.6 5.53-15c1.46-4.4 3.06-8.42 3.55-8.95.49-.52.89-1.76.89-2.76 0-.99.94-3.94 2.08-6.55 4.43-10.07 4.92-11.35 4.92-12.68 0-.75 1.35-4.38 3-8.06 1.65-3.67 3-7.34 3-8.14 0-1.32 1.26-4.49 5.57-14.01.79-1.73 1.43-3.76 1.43-4.5s1.29-4.5 2.88-8.35 3.45-8.8 4.13-11 2.3-6.37 3.61-9.28c1.31-2.9 2.38-5.9 2.38-6.65 0-.76 1.35-4.39 3-8.07 1.65-3.67 3-7.25 3-7.95s1.39-4.6 3.09-8.66 3.77-9.64 4.6-12.39 1.86-5.45 2.28-6 1.54-3.47 2.48-6.5c.95-3.02 2.81-7.87 4.14-10.78s2.84-7.18 3.36-9.5 1.72-5.76 2.66-7.64 2.92-6.83 4.4-11l9.1-24.58c1.56-3.85 3.14-8.35 3.53-10 .38-1.65 1.8-5.47 3.14-8.5 1.35-3.02 3.12-7.75 3.94-10.5.81-2.75 1.82-5.45 2.23-6 .42-.55 1.56-3.47 2.54-6.5.98-3.02 3.07-8.54 4.65-12.26 1.57-3.71 2.86-7.48 2.86-8.37s1.58-5.1 3.5-9.37c1.93-4.26 3.5-8.42 3.5-9.24 0-.83 1.29-4.59 2.87-8.38 1.58-3.78 3.43-8.68 4.12-10.88s2.32-6.37 3.63-9.28c1.31-2.9 2.38-6.09 2.38-7.08s.29-2.09.64-2.45c.91-.9 5.35-11.95 5.36-13.31 0-1.05 2.88-8.31 5.12-12.92.55-1.12 1.11-2.7 1.25-3.5.39-2.27 1.72-6.17 3.22-9.46.76-1.65 2.23-5.47 3.29-8.5 5.86-16.84 9.97-27.86 11.45-30.7.92-1.76 1.67-3.85 1.67-4.64 0-.8 1.39-4.71 3.09-8.7 1.69-3.99 3.25-8.11 3.45-9.16s1.56-4.9 3.03-8.56c4.54-11.35 9.04-26.8 9.9-34.03l1.49-12.18c1.75-14.28 1.39-26.12-1.49-48.53-1-7.77-6.16-24.81-10.15-33.5-1.39-3.02-2.68-6.3-2.87-7.27-.19-.98-1.72-3.82-3.4-6.3-1.68-2.49-3.05-5.15-3.05-5.91 0-.75-.58-1.97-1.28-2.7-.71-.72-2.79-3.79-4.63-6.82-1.83-3.02-3.94-6.17-4.67-7-.74-.82-4.62-5.31-8.63-9.97s-9.09-10.06-11.28-12c-2.2-1.94-5.16-4.65-6.58-6.03-3.95-3.81-12.93-10.43-17.68-13.04-2.34-1.28-4.25-2.66-4.25-3.07s-.97-1.06-2.15-1.43c-1.19-.38-4.36-1.99-7.05-3.57-2.69-1.59-5.31-2.89-5.83-2.89-.51 0-3.74-1.36-7.17-3.02s-7.29-3.21-8.58-3.44c-1.29-.24-5.89-1.58-10.23-2.98-4.34-1.41-12.98-3.33-19.19-4.28-10.45-1.6-31.32-1.75-278.05-2.02l-266.75-2.07c0-.98.43-2.21.95-2.74.52-.52 2.28-5.03 3.91-10.02s4.13-11.84 5.55-15.22c1.43-3.38 2.59-6.86 2.59-7.73s.92-3.61 2.05-6.08c1.13-2.48 2.95-7.42 4.05-10.99 1.1-3.56 2.92-8.6 4.05-11.2 1.12-2.59 2.21-5.61 2.42-6.71s2.21-6.95 4.44-13l9.96-27.5 10.54-28.65c.82-1.73 1.49-3.89 1.49-4.8s1.58-5.46 3.5-10.11c1.93-4.66 3.5-8.98 3.5-9.62s1.08-3.89 2.39-7.24c1.32-3.34 2.7-7.09 3.07-8.33l.68-2.25H816.699l-1.88 4.25z" />
    <path id="C"
      d="M1037.31 1.097c-14.99 1.133-33.99 5.841-46.276 11.47-2.903 1.329-5.696 2.417-6.206 2.417s-3.219 1.35-6.017 3-5.361 3-5.694 3c-1.192 0-16.822 10.355-17.606 11.664-.44.735-1.285 1.336-1.878 1.336-2.585 0-30.822 27.486-30.822 30.002 0 .378-.954 1.545-2.12 2.593-3.102 2.788-8.488 11.382-16.235 25.905-2.892 5.421-7.645 16.612-7.645 18 0 .748-1.328 4.23-2.952 7.738s-3.189 7.727-3.48 9.376-1.241 4.429-2.113 6.175-2.845 6.672-4.386 10.944l-11.432 30.639c-.901 2.13-1.637 4.48-1.637 5.223s-1.086 3.725-2.414 6.628-3.633 8.652-5.122 12.777l-12.483 34c-4.074 10.669-8.318 22.311-11.667 32-1.425 4.125-2.932 7.95-3.348 8.5s-1.663 3.925-2.77 7.5-2.999 8.75-4.203 11.5-3.223 7.925-4.485 11.5l-12.505 34c-1.755 4.675-4.008 10.975-5.008 14s-2.738 7.631-3.864 10.235l-2.047 4.734-500.584.531-12.5 2.351c-6.875 1.293-15.875 3.462-20 4.82s-8.85 2.826-10.5 3.262c-2.812.745-11.783 5.028-24.5 11.699-11.427 5.994-29.838 21.356-42.582 35.532-3.903 4.341-12.93 17.332-17.16 24.693-9.617 16.738-15.085 30.984-19.437 50.643-2.601 11.75-3.175 16.793-3.576 31.38-.478 17.398.196 25.332 3.367 39.62 2.238 10.086 5.648 21.542 6.583 22.121.443.273.805 1.261.805 2.195 0 1.782 9.74 22.32 10.995 23.184.399.275 1.503 2.016 2.453 3.869 1.999 3.9 8.361 13.165 10.047 14.631.633.55 1.568 1.741 2.078 2.648.837 1.487 14.565 16.616 23.427 25.817l10.962 11.585 15.512 16.45 21.538 22.929 16.988 18.095 30.395 32.063 14 14.913 21.105 22.489 19.669 20.999 14 14.87 14.831 15.676 46.775 49.716 9.532 10.25H3004.57l1.21-3.25 3.53-9.25c1.28-3.3 3.23-8.7 4.33-12s3.87-10.725 6.15-16.5 4.75-12.525 5.48-15c.74-2.475 2.69-7.875 4.34-12 6.3-15.73 9.22-23.54 9.21-24.657-.01-.636 1.29-4.05 2.87-7.585 1.59-3.536 3.21-7.9 3.61-9.698.39-1.798 1.65-5.359 2.8-7.914 1.14-2.555 3.38-8.246 4.96-12.646l6.36-17.5 4.84-13.5c.74-2.2 2.34-6.25 3.54-9a152.84 152.84 0 0 0 4.03-10.5c2.89-8.592 7.91-22.194 9.42-25.5.76-1.65 2.05-5.25 2.87-8 .83-2.75 2.67-7.6 4.1-10.779 1.42-3.178 2.59-6.427 2.59-7.221s1.16-4.043 2.58-7.221 3.84-9.379 5.39-13.779l8.56-23.5 4.42-12c1.55-4.402 6.91-18.885 11.1-30l6.45-17.5 5.27-14c4.48-11.075 8.23-21.197 8.23-22.23 0-.601 1.58-4.773 3.5-9.27 1.93-4.497 3.5-8.756 3.5-9.464s1.09-3.745 2.42-6.75 3.6-8.913 5.06-13.13c1.45-4.217 3.29-8.903 4.08-10.412.78-1.509 1.43-3.536 1.43-4.505.01-.968.89-3.668 1.97-6 1.68-3.648 5.61-14.052 10.09-26.739 1.14-3.229 1.89-5.231 5.07-13.5l7.93-21.5 4.61-12.139c1.84-4.752 3.34-9.145 3.34-9.764s.43-1.906.97-2.861c2-3.608 5.03-11.183 5.03-12.588 0-.804 1.35-4.466 3-8.138 1.64-3.672 3.18-7.711 3.41-8.976s1.8-5.606 3.5-9.648 3.09-7.84 3.09-8.441 1.58-4.727 3.5-9.169c1.93-4.442 3.5-8.739 3.5-9.549s.98-3.667 2.17-6.35c1.2-2.682 3.38-8.252 4.86-12.377l4.47-12.5c.99-2.75 3.08-8.041 4.65-11.759s2.85-7.455 2.85-8.306c0-1.365 2.22-7.033 5.08-12.935.53-1.1 1.14-2.974 1.37-4.165.22-1.191 1.79-5.458 3.48-9.481s3.07-7.825 3.07-8.448 1.39-4.455 3.08-8.518 3.22-8.063 3.39-8.888c.18-.825 1.67-5.55 3.32-10.5 5.89-17.696 8.84-42.441 7.23-60.748-1.21-13.745-5.34-35-8.02-41.261-1.09-2.541-2.16-5.604-2.38-6.806-.49-2.656-9.67-21.639-13.15-27.185-1.38-2.2-3.03-5.013-3.65-6.25-.63-1.238-1.52-2.25-1.98-2.25s-.84-.575-.84-1.277-1.35-2.755-3-4.562-3-3.638-3-4.071c0-.978-20.45-21.603-25.09-25.308-6.5-5.184-12.79-9.782-13.39-9.782-.69 0-6.3-3.88-8.31-5.75-.75-.687-1.98-1.25-2.75-1.25-.76 0-3.52-1.35-6.12-3s-5.31-3-6.02-3-4.11-1.376-7.55-3.058c-3.45-1.682-8.07-3.45-10.27-3.929s-7.37-1.801-11.5-2.939c-10.13-2.796-10.58-2.866-26-4.041-16.54-1.26-2063.8-1.181-2080.5.08zM814.819 1095.23c-1.034 2.34-2.09 5.42-2.349 6.84-.258 1.43-1.783 5.93-3.39 10-1.606 4.08-3.62 9.44-4.476 11.91l-8.851 25-8.734 25c-1.876 5.53-2.542 7.23-5.153 13.2-1.13 2.58-2.055 5.42-2.055 6.3 0 .89-1.368 4.83-3.039 8.76-1.672 3.92-3.447 8.74-3.945 10.69s-2.972 9.18-5.496 16.05l-12.563 35-4.488 12.5-10.509 30c-.671 2.2-1.561 4.45-1.977 5s-2.104 5.05-3.753 10l-4.47 13c-.81 2.2-2.043 5.8-2.74 8s-2.122 5.92-3.168 8.25c-1.046 2.34-2.179 5.72-2.518 7.5-.338 1.79-.946 3.7-1.351 4.25s-2.647 6.63-4.983 13.5c-2.336 6.88-4.619 12.97-5.072 13.54s-1.278 2.82-1.834 5-2.892 9.14-5.192 15.46l-7.071 20c-1.588 4.68-3.554 9.93-4.368 11.67-.815 1.75-1.779 4.67-2.143 6.5-.364 1.84-1.776 5.81-3.14 8.83-1.363 3.03-3.261 8.2-4.218 11.5s-2.648 8.25-3.758 11c-3.112 7.71-8.151 21.51-9.679 26.5-.757 2.48-3.263 9.68-5.57 16l-5.67 16a170.73 170.73 0 0 1-3.527 9.5c-1.127 2.75-3.068 8.15-4.314 12s-4.143 12.18-6.439 18.5l-19.871 55.72c-2.185 6.17-4.259 11.68-4.608 12.24-.35.57-1.242 3.17-1.983 5.79-.741 2.61-3.011 9.25-5.044 14.75l-6.597 18.5c-1.596 4.68-3.343 9.4-3.881 10.5-1.341 2.74-8.99 24.3-9.936 28-.421 1.65-1.645 5.03-2.719 7.5-1.075 2.48-2.548 6.53-3.274 9-.726 2.48-1.728 5.4-2.227 6.5-.774 1.71-3.059 8.05-9.905 27.5l-9.465 26.5-11.541 32.81c-1.628 4.84-3.568 10.02-4.311 11.5s-1.9 4.94-2.571 7.68-1.586 5.44-2.032 6-2.178 5.06-3.845 10.01l-7.211 20.5c-2.298 6.33-4.768 13.53-5.488 16-.72 2.48-2.702 7.74-4.403 11.7s-3.093 7.74-3.093 8.41-1.285 4.64-2.855 8.81l-4.089 11.08-5.016 14-5.564 15.5-5.129 13.76c-1.841 4.82-3.347 9.37-3.347 10.13 0 .75-1.126 3.91-2.503 7.02-1.376 3.12-2.914 7.33-3.418 9.38-.503 2.04-2.337 7.54-4.076 12.21l-15.14 42c-1.595 4.68-3.531 9.85-4.304 11.5s-1.699 4.35-2.06 6-1.051 3.9-1.536 5c-2.404 5.46-5.962 14.97-5.955 15.93.005.59-1.287 4.45-2.87 8.57-1.583 4.13-3.644 9.75-4.582 12.5l-6.219 17.5c-2.483 6.88-4.857 13.85-5.275 15.5s-1.672 5.03-2.788 7.5c-1.115 2.48-2.591 6.3-3.278 8.5s-2.295 6.7-3.571 10-2.838 8.03-3.47 10.5c-.633 2.48-1.516 4.95-1.964 5.5s-2.704 6.63-5.015 13.5c-2.312 6.88-4.538 12.95-4.949 13.5s-1.03 2.5-1.377 4.33a32.45 32.45 0 0 1-2.135 6.5c-1.657 3.5-8.017 21.15-9.609 26.67-.555 1.93-2.609 7.78-4.565 13l-16.394 45.5-12.481 35-5.703 16c-3.508 10.37-7.957 22.68-11.422 31.63-1.838 4.74-3.341 9.16-3.341 9.81 0 1.21-3.403 10.1-5.086 13.3-.503.95-.914 2.36-.914 3.11 0 .76-1.354 4.66-3.01 8.68-1.655 4.01-3.196 8.24-3.425 9.38-.599 3.02-2.725 8.92-3.636 10.11-.43.55-1.33 3.25-2.001 6-.671 2.74-1.77 6.11-2.442 7.48-.672 1.38-2.93 7.43-5.018 13.45-2.087 6.03-4.394 12.1-5.126 13.5-.731 1.41-1.332 3.37-1.336 4.37s-.493 2.73-1.089 3.84c-1.112 2.08-7.731 20.43-10.583 29.34-1.88 5.88-5.709 16.33-10.732 29.3-1.981 5.12-3.602 10-3.602 10.85s-.696 3.02-1.547 4.81c-1.308 2.76-5.031 12.9-10.48 28.54l-4.509 12.5c-1.809 4.95-4.057 11.42-4.995 14.37s-2.324 6.55-3.081 8-1.378 3.37-1.382 4.26-1.095 4.09-2.427 7.1-2.925 7.45-3.542 9.87-1.523 5.3-2.014 6.4c-3.179 7.12-5.023 11.95-5.023 13.15 0 .77-1.539 5.33-3.42 10.13a524.09 524.09 0 0 0-6.336 17.22l-4.723 13.5-10.044 28-11.39 31.32c-1.698 4.57-3.087 8.96-3.087 9.76 0 .79-.873 3.35-1.941 5.68-1.817 3.97-3.511 8.69-11.212 31.24-1.691 4.95-3.429 9.45-3.863 10s-1.313 3.03-1.955 5.5c-1.152 4.45-3.393 10.64-10.427 28.8-1.981 5.12-3.6 9.85-3.597 10.5.003.66-1.284 4.58-2.86 8.7-1.575 4.13-3.67 9.98-4.653 13-.984 3.03-2.091 5.95-2.46 6.5s-1.261 3.03-1.981 5.5c-.721 2.48-1.895 5.85-2.609 7.5-.715 1.66-2.402 6.38-3.75 10.5-1.348 4.13-3.63 10.3-5.071 13.72s-2.624 7.02-2.627 8-.665 3.05-1.469 4.59-2.799 6.72-4.433 11.5l-6.574 18.69-12.128 34-4.508 12.5-6.39 18-6.404 18-4.296 12c-3.422 10.08-6.253 17.95-9.436 26.26-1.846 4.82-3.356 9.37-3.356 10.12s-1.282 4.46-2.848 8.24c-1.566 3.79-3.617 9.13-4.558 11.88l-6.22 17.5-6.044 17.5c-.844 2.75-1.88 5.45-2.302 6-.805 1.05-2.809 6.87-3.479 10.11-.217 1.04-1.778 5.22-3.471 9.28s-3.078 7.97-3.078 8.68c0 .7-1.392 4.76-3.093 9.01s-3.297 8.84-3.544 10.21c-.248 1.36-1.105 3.75-1.904 5.29-.799 1.55-2.786 6.77-4.415 11.62l-6.397 18.3-5.198 14.5c-.97 2.75-3.267 8.89-5.106 13.64s-3.343 9.5-3.343 10.55-.408 2.34-.906 2.86c-.844.89-1.978 4.03-10.084 27.95-1.678 4.95-3.446 9.9-3.929 11-2.096 4.77-3.17 8.35-4.049 13.5-.516 3.03-1.648 8.65-2.516 12.5-2.199 9.76-3.07 34.84-1.598 46 3.369 25.54 12.278 51.52 24.17 70.5 2.239 3.58 4.486 6.65 4.992 6.84.506.18.92.91.92 1.61s1.025 2.35 2.277 3.67c1.252 1.31 3.455 3.96 4.895 5.88 5.313 7.11 21.554 22.67 29.137 27.91 1.205.84 3.311 2.55 4.681 3.81 1.369 1.25 2.863 2.28 3.32 2.28s2.711 1.28 5.01 2.84c7.496 5.08 30.82 15.85 37.04 17.09 2.277.46 8.64 2.13 14.14 3.7l10 2.87 483.5.3 496.109-.73c6.94-.56 15.04-1.68 18-2.48 20.66-5.61 29.55-8.89 42.89-15.82 7.12-3.71 24.03-14.93 28-18.59 10.33-9.51 19-18.21 19-19.04 0-.55 1.35-1.96 3-3.14 1.65-1.17 3-2.72 3-3.44s.67-1.86 1.48-2.54c4-3.32 14.85-21.69 21.45-36.31 1.69-3.74 3.07-7.22 3.07-7.75 0-1.42 4.03-12.79 5.61-15.81.76-1.46 1.38-3.46 1.38-4.46.01-1 .5-2.73 1.09-3.84.6-1.11 2.79-6.82 4.87-12.69l10.06-28.16 4.79-13.5 6.22-17.5 5.59-16c.78-2.47 2.04-5.85 2.79-7.5s1.92-4.8 2.59-7c.68-2.2 2.56-7.43 4.19-11.63 1.63-4.19 3.06-8.26 3.17-9.04s1.6-5.23 3.3-9.88l4.33-11.95 5.04-14 5.56-15.5 11.34-31.2c1.69-4.51 3.08-9.03 3.08-10.05 0-1.01.4-2.27.89-2.8.48-.52 2.79-6.57 5.12-13.45 2.33-6.87 4.61-12.96 5.06-13.54.46-.57 1.26-2.82 1.8-5 .53-2.17 2.39-7.78 4.12-12.46l10.2-28 8.32-23.5c1.25-3.3 3.26-8.92 4.48-12.5l6-17 5.03-14 4.5-12.5 4.77-13.5c2.65-7.82 4.96-14.23 8.39-23.24 1.82-4.81 3.32-9.56 3.32-10.55s.36-2.23.8-2.76c.78-.92 2.99-6.6 6.6-16.95l12.07-34 6.45-18 4.63-13 4.78-13.5 6.13-17 5.24-14.5 8.3-23.5 8.32-23.5c1.12-3.3 2.6-7.35 3.29-9s2.35-6.37 3.7-10.5c1.35-4.12 3.63-10.3 5.07-13.72s2.62-7.02 2.63-8c0-.98.59-2.9 1.31-4.28.71-1.37 2.12-4.97 3.12-8 .99-3.02 2.85-8.2 4.11-11.5s3.26-8.92 4.44-12.5c1.18-3.57 2.55-7.4 3.06-8.5.5-1.1 2.23-5.82 3.84-10.5l15.08-42c1.75-4.67 3.61-10.28 4.15-12.45.54-2.18 1.63-5.33 2.42-7 1.33-2.82 5.66-14.88 9.19-25.55.81-2.47 2.99-8.55 4.83-13.5l6.46-18 6.42-18 4.52-12.5 11.4-32 5.15-14.5 5.01-14 10.04-28.5c.36-1.37 1.26-3.85 1.98-5.5.73-1.65 2.03-5.14 2.89-7.76.85-2.62 2.84-8.24 4.4-12.5l4.14-11.74c.7-2.2 2.09-5.81 3.08-8.03s2.1-5.37 2.46-7c.35-1.63 1.02-3.87 1.47-4.97s1.71-4.47 2.79-7.5l5.47-15 7.93-22.5c1.12-3.3 2.93-8.25 4.03-11s2.68-7.25 3.51-10 2.19-6.57 3.02-8.5c.83-1.92 3.01-8.02 4.85-13.55 1.83-5.53 4.03-11.38 4.87-13 .85-1.62 1.54-3.72 1.54-4.66.01-.95.75-3.42 1.65-5.5 2.7-6.23 3.05-7.19 8.34-22.79 2.79-8.25 5.63-16.23 6.29-17.75l1.22-2.75h318c353.24 0 334.65.34 357.5-6.49 6.62-1.98 14.23-4.71 16.92-6.05 2.68-1.35 5.31-2.46 5.83-2.46 1.02 0 3.58-1.31 12.32-6.31 15.17-8.69 26.55-17.29 37.39-28.27 6.49-6.57 19.77-23.36 22.71-28.7 6.23-11.34 8.61-15.97 10.63-20.72l3.82-9c.82-1.92 1.91-4.27 2.43-5.21.51-.95 1.34-3.42 1.84-5.5s2.26-7.16 3.92-11.29c3.04-7.58 8.06-20.99 9.91-26.5.56-1.65 2.25-6.15 3.75-10 7.14-18.24 8.56-22.08 8.55-23.22-.01-.67 1.07-3.59 2.39-6.5 1.33-2.9 3.3-7.98 4.4-11.28 1.09-3.3 2.94-8.17 4.1-10.83 1.15-2.66 2.1-5.5 2.1-6.31 0-.82 1.17-4.04 2.6-7.17 1.43-3.12 3.85-9.28 5.39-13.68 4.04-11.6 4.96-14.08 8.67-23.36 1.84-4.59 3.34-9.13 3.34-10.08s.29-2.02.64-2.38c.88-.87 5.35-11.93 5.34-13.19 0-.55 1.53-4.82 3.4-9.5 1.88-4.67 4.85-12.55 6.6-17.5 1.76-4.95 4.48-12.15 6.05-16s4.06-10.6 5.53-15c1.46-4.4 3.06-8.42 3.55-8.95.49-.52.89-1.72.89-2.67 0-.94 1.58-5.45 3.5-10.02 1.93-4.56 3.5-8.83 3.5-9.48 0-.66 1.35-4.2 3-7.88 1.65-3.67 3-7.34 3-8.14 0-1.32 1.26-4.49 5.57-14.01.79-1.73 1.43-3.76 1.43-4.5s1.29-4.5 2.88-8.35 3.45-8.8 4.13-11 2.3-6.37 3.61-9.28c1.31-2.9 2.38-5.9 2.38-6.65 0-.76 1.35-4.39 3-8.07 1.65-3.67 3-7.25 3-7.95s1.39-4.6 3.09-8.66 3.77-9.64 4.6-12.39 1.88-5.45 2.32-6 1.58-3.69 2.54-6.98c.95-3.3 2.1-6.67 2.56-7.5 2.04-3.75 4.89-11.06 4.89-12.55 0-.9 1.35-4.56 3-8.12 1.65-3.57 3-7.04 3-7.71 0-.68 1.57-5.03 3.48-9.68 1.92-4.65 3.49-8.98 3.5-9.61.01-.64 1.32-4.05 2.9-7.59 1.59-3.53 3.21-7.9 3.61-9.7.39-1.8 1.85-5.81 3.23-8.92 1.38-3.1 3.18-7.89 4-10.64.81-2.75 1.83-5.45 2.25-6s1.54-3.47 2.48-6.5c.94-3.02 2.97-8.65 4.5-12.5s3.56-9.25 4.52-12c3.04-8.73 7.14-19.83 9.23-25a191.03 191.03 0 0 0 3.81-10.5c.98-3.02 2.11-5.95 2.51-6.5s1.26-2.8 1.92-5 1.63-4.9 2.15-6c.51-1.1 2.23-5.6 3.81-10l11.1-30c.55-1.1 1.85-4.47 2.9-7.5 5.31-15.42 9.94-27.83 11.43-30.7.92-1.76 1.67-3.78 1.66-4.5 0-.71 1.31-4.67 2.92-8.8 10.3-26.4 15.44-42.46 16.55-51.67l1.5-12.3c.57-4.66 1.04-12.77 1.04-18.03 0-8.4-.41-13.36-2.5-30.5-.45-3.67-1.24-6.62-5.98-22.5-.9-3.02-2.25-6.85-3-8.5-2.86-6.31-8.51-18.07-9.49-19.75-.57-.96-1.46-2.53-2-3.5-3.4-6.15-7.56-12.74-9.39-14.87l-9.14-10.72c-8.11-9.55-25.53-24.97-33.5-29.65-3.02-1.78-5.72-3.56-6-3.96-.27-.39-5.9-3.29-12.5-6.43l-13.74-6.67c-.95-.52-2.3-.95-3-.95-.69 0-5.38-1.34-10.41-2.99-20.9-6.83-2.95-6.43-298.6-6.75l-266.75-2.07c0-.98.41-2.21.91-2.74.5-.52 2.28-5.08 3.95-10.12 1.68-5.05 4.2-11.9 5.6-15.22 1.4-3.33 2.54-6.85 2.55-7.83 0-.98.62-2.96 1.38-4.41s2.16-5.05 3.12-8 2.97-8.74 4.47-12.87l6.48-18 7-19.5 4.5-12.5 5.69-16 7.49-21 4.57-13a401.71 401.71 0 0 1 3.8-10.5c1.25-3.3 2.58-7.01 2.95-8.25l.68-2.25H816.699l-1.88 4.25z" />
    <path id="D"
      d="M1037.31 1.097c-14.99 1.133-33.99 5.841-46.276 11.47-2.903 1.329-5.696 2.417-6.206 2.417s-3.219 1.35-6.017 3-5.361 3-5.694 3c-1.192 0-16.822 10.355-17.606 11.664-.44.735-1.285 1.336-1.878 1.336-2.585 0-30.822 27.486-30.822 30.002 0 .378-.954 1.545-2.12 2.593-3.102 2.788-8.488 11.382-16.235 25.905-2.892 5.421-7.645 16.612-7.645 18 0 .748-1.328 4.23-2.952 7.738s-3.189 7.727-3.48 9.376-1.241 4.429-2.113 6.175-2.845 6.672-4.386 10.944l-11.432 30.639c-.901 2.13-1.637 4.48-1.637 5.223s-1.086 3.725-2.414 6.628-3.633 8.652-5.122 12.777l-12.483 34c-4.074 10.669-8.318 22.311-11.667 32-1.425 4.125-2.932 7.95-3.348 8.5s-1.663 3.925-2.77 7.5-2.999 8.75-4.203 11.5-3.223 7.925-4.485 11.5l-12.505 34c-1.755 4.675-4.008 10.975-5.008 14s-2.738 7.631-3.864 10.235l-2.047 4.734-500.584.531-12.5 2.351c-6.875 1.293-15.875 3.462-20 4.82s-8.85 2.826-10.5 3.262c-2.812.745-11.783 5.028-24.5 11.699-11.427 5.994-29.838 21.356-42.582 35.532-3.903 4.341-12.93 17.332-17.16 24.693-9.617 16.738-15.085 30.984-19.437 50.643-2.601 11.75-3.175 16.793-3.576 31.38-.478 17.398.196 25.332 3.367 39.62 2.238 10.086 5.648 21.542 6.583 22.121.443.273.805 1.261.805 2.195 0 1.782 9.74 22.32 10.995 23.184.399.275 1.503 2.016 2.453 3.869 1.999 3.9 8.361 13.165 10.047 14.631.633.55 1.568 1.741 2.078 2.648.837 1.487 14.565 16.616 23.427 25.817l10.962 11.585 15.512 16.45 21.538 22.929 16.988 18.095 30.395 32.063 14 14.913 21.105 22.489 19.669 20.999 14 14.87 14.831 15.676 46.775 49.716 9.532 10.25H3004.57l1.21-3.25 3.53-9.25c1.28-3.3 3.23-8.7 4.33-12s3.87-10.725 6.15-16.5 4.75-12.525 5.48-15c.74-2.475 2.69-7.875 4.34-12 6.3-15.73 9.22-23.54 9.21-24.657-.01-.636 1.29-4.05 2.87-7.585 1.59-3.536 3.21-7.9 3.61-9.698.39-1.798 1.65-5.359 2.8-7.914 1.14-2.555 3.38-8.246 4.96-12.646l6.36-17.5 4.84-13.5c.74-2.2 2.34-6.25 3.54-9a152.84 152.84 0 0 0 4.03-10.5c2.89-8.592 7.91-22.194 9.42-25.5.76-1.65 2.05-5.25 2.87-8 .83-2.75 2.67-7.6 4.1-10.779 1.42-3.178 2.59-6.427 2.59-7.221s1.16-4.043 2.58-7.221 3.84-9.379 5.39-13.779l8.56-23.5 4.42-12c1.55-4.402 6.91-18.885 11.1-30l6.45-17.5 5.27-14c4.48-11.075 8.23-21.197 8.23-22.23 0-.601 1.58-4.773 3.5-9.27 1.93-4.497 3.5-8.756 3.5-9.464s1.09-3.745 2.42-6.75 3.6-8.913 5.06-13.13c1.45-4.217 3.29-8.903 4.08-10.412.78-1.509 1.43-3.536 1.43-4.505.01-.968.89-3.668 1.97-6 1.68-3.648 5.61-14.052 10.09-26.739 1.14-3.229 1.89-5.231 5.07-13.5l7.93-21.5 4.61-12.139c1.84-4.752 3.34-9.145 3.34-9.764s.43-1.906.97-2.861c2-3.608 5.03-11.183 5.03-12.588 0-.804 1.35-4.466 3-8.138 1.64-3.672 3.18-7.711 3.41-8.976s1.8-5.606 3.5-9.648 3.09-7.84 3.09-8.441 1.58-4.727 3.5-9.169c1.93-4.442 3.5-8.739 3.5-9.549s.98-3.667 2.17-6.35c1.2-2.682 3.38-8.252 4.86-12.377l4.47-12.5c.99-2.75 3.08-8.041 4.65-11.759s2.85-7.455 2.85-8.306c0-1.365 2.22-7.033 5.08-12.935.53-1.1 1.14-2.974 1.37-4.165.22-1.191 1.79-5.458 3.48-9.481s3.07-7.825 3.07-8.448 1.39-4.455 3.08-8.518 3.22-8.063 3.39-8.888c.18-.825 1.67-5.55 3.32-10.5 5.89-17.696 8.84-42.441 7.23-60.748-1.21-13.745-5.34-35-8.02-41.261-1.09-2.541-2.16-5.604-2.38-6.806-.49-2.656-9.67-21.639-13.15-27.185-1.38-2.2-3.03-5.013-3.65-6.25-.63-1.238-1.52-2.25-1.98-2.25s-.84-.575-.84-1.277-1.35-2.755-3-4.562-3-3.638-3-4.071c0-.978-20.45-21.603-25.09-25.308-6.5-5.184-12.79-9.782-13.39-9.782-.69 0-6.3-3.88-8.31-5.75-.75-.687-1.98-1.25-2.75-1.25-.76 0-3.52-1.35-6.12-3s-5.31-3-6.02-3-4.11-1.376-7.55-3.058c-3.45-1.682-8.07-3.45-10.27-3.929s-7.37-1.801-11.5-2.939c-10.13-2.796-10.58-2.866-26-4.041-16.54-1.26-2063.8-1.181-2080.5.08zM2423.68 2252.73c-1.24 1.59-1.21 1.62.38.38.96-.75 1.75-1.54 1.75-1.75 0-.82-.82-.29-2.13 1.37z" />
  </defs>
</svg>